<?xml version="1.0" encoding="UTF-8" standalone="no"?>
<!DOCTYPE svg PUBLIC "-//W3C//DTD SVG 1.1//EN" "http://www.w3.org/Graphics/SVG/1.1/DTD/svg11.dtd">
<svg width="100%" height="100%" viewBox="0 0 800 300" version="1.1" xmlns="http://www.w3.org/2000/svg" xmlns:xlink="http://www.w3.org/1999/xlink" xml:space="preserve" xmlns:serif="http://www.serif.com/" style="fill-rule:evenodd;clip-rule:evenodd;stroke-linejoin:round;stroke-miterlimit:2;">
    <g transform="matrix(0.821565,0,0,0.821565,22.098,-174.181)">
        <path d="M202.693,417.863L227.232,417.863C227.701,421.285 229.658,424.074 233.103,426.23C236.548,428.386 240.685,429.464 245.513,429.464C250.482,429.464 254.49,428.468 257.537,426.476C260.584,424.484 262.107,421.941 262.107,418.847C262.107,416.035 260.923,413.843 258.556,412.273C256.189,410.703 252.099,409.308 246.287,408.089L232.998,405.488C223.669,403.706 216.615,400.343 211.834,395.398C207.052,390.453 204.662,384.113 204.662,376.378C204.662,366.628 208.423,358.8 215.947,352.894C223.47,346.988 233.162,344.035 245.021,344.035C257.584,344.035 267.462,346.859 274.658,352.507C281.853,358.156 285.521,365.785 285.662,375.394L261.896,375.394C261.662,371.738 260.021,368.855 256.974,366.745C253.927,364.636 250.037,363.581 245.302,363.581C240.802,363.581 237.181,364.519 234.439,366.394C231.697,368.269 230.326,370.753 230.326,373.847C230.326,376.566 231.509,378.757 233.877,380.421C236.244,382.085 240.099,383.456 245.443,384.535L258.591,386.995C268.576,388.917 275.912,392.222 280.599,396.91C285.287,401.597 287.63,407.949 287.63,415.964C287.63,426.042 283.763,434.07 276.029,440.046C268.294,446.023 257.888,449.011 244.81,449.011C231.826,449.011 221.595,446.269 214.119,440.785C206.642,435.3 202.834,427.66 202.693,417.863Z" style="fill-rule:nonzero;"/>
        <path d="M331.908,431.222C335.798,431.222 339.138,430.144 341.927,427.988C344.716,425.831 346.111,423.089 346.111,419.761L346.111,414.488L332.189,415.402C328.954,415.636 326.447,416.468 324.665,417.898C322.884,419.328 321.994,421.167 321.994,423.417C321.994,425.808 322.896,427.706 324.701,429.113C326.505,430.519 328.908,431.222 331.908,431.222ZM323.048,448.378C315.829,448.378 309.736,446.199 304.767,441.839C299.798,437.48 297.314,431.902 297.314,425.105C297.314,417.98 299.962,412.425 305.259,408.441C310.556,404.456 318.197,402.16 328.181,401.55L346.111,400.495L346.111,396.136C346.111,393.136 345.126,390.804 343.158,389.14C341.189,387.476 338.54,386.644 335.212,386.644C331.931,386.644 329.247,387.406 327.162,388.929C325.076,390.453 323.845,392.433 323.47,394.87L301.04,394.87C301.415,386.949 304.767,380.632 311.095,375.921C317.423,371.21 325.884,368.855 336.478,368.855C346.697,368.855 354.923,371.234 361.158,375.992C367.392,380.749 370.509,386.995 370.509,394.73L370.509,447.253L346.251,447.253L346.251,436.355L345.759,436.355C343.744,440.105 340.65,443.046 336.478,445.179C332.306,447.312 327.829,448.378 323.048,448.378Z" style="fill-rule:nonzero;"/>
        <rect x="384.974" y="345.792" width="24.961" height="101.461" style="fill-rule:nonzero;"/>
        <path d="M424.681,447.253L424.681,370.683L449.571,370.683L449.571,447.253L424.681,447.253ZM446.196,360.98C443.759,363.324 440.735,364.495 437.126,364.495C433.517,364.495 430.482,363.324 428.021,360.98C425.56,358.636 424.329,355.73 424.329,352.261C424.329,348.839 425.56,345.956 428.021,343.613C430.482,341.269 433.517,340.097 437.126,340.097C440.735,340.097 443.759,341.257 446.196,343.578C448.634,345.898 449.853,348.792 449.853,352.261C449.853,355.73 448.634,358.636 446.196,360.98Z" style="fill-rule:nonzero;"/>
        <path d="M463.895,447.253L463.895,370.683L488.153,370.683L488.153,385.449L488.645,385.449C490.145,380.48 492.864,376.531 496.802,373.601C500.739,370.671 505.309,369.206 510.513,369.206C516.231,369.206 520.942,370.624 524.645,373.46C528.349,376.296 530.739,380.316 531.817,385.519L532.309,385.519C533.809,380.597 536.704,376.648 540.993,373.671C545.282,370.695 550.263,369.206 555.934,369.206C563.434,369.206 569.505,371.609 574.145,376.413C578.786,381.218 581.106,387.511 581.106,395.292L581.106,447.253L556.145,447.253L556.145,401.62C556.145,393.511 552.559,389.456 545.388,389.456C542.013,389.456 539.341,390.581 537.372,392.831C535.403,395.081 534.419,398.081 534.419,401.831L534.419,447.253L510.583,447.253L510.583,401.339C510.583,397.495 509.669,394.554 507.841,392.515C506.013,390.476 503.388,389.456 499.966,389.456C496.591,389.456 493.895,390.605 491.88,392.902C489.864,395.199 488.856,398.222 488.856,401.972L488.856,447.253L463.895,447.253Z" style="fill-rule:nonzero;"/>
        <path d="M593.602,447.253L593.602,434.035L629.602,389.878L629.602,389.386L594.446,389.386L594.446,370.683L658.712,370.683L658.712,385.87L626.016,428.058L626.016,428.55L659.907,428.55L659.907,447.253L593.602,447.253Z" style="fill-rule:nonzero;"/>
        <path d="M704.395,431.222C708.286,431.222 711.626,430.144 714.415,427.988C717.204,425.831 718.598,423.089 718.598,419.761L718.598,414.488L704.676,415.402C701.442,415.636 698.934,416.468 697.153,417.898C695.372,419.328 694.481,421.167 694.481,423.417C694.481,425.808 695.383,427.706 697.188,429.113C698.993,430.519 701.395,431.222 704.395,431.222ZM695.536,448.378C688.317,448.378 682.223,446.199 677.254,441.839C672.286,437.48 669.801,431.902 669.801,425.105C669.801,417.98 672.45,412.425 677.747,408.441C683.044,404.456 690.684,402.16 700.669,401.55L718.598,400.495L718.598,396.136C718.598,393.136 717.614,390.804 715.645,389.14C713.676,387.476 711.028,386.644 707.7,386.644C704.419,386.644 701.735,387.406 699.649,388.929C697.563,390.453 696.333,392.433 695.958,394.87L673.528,394.87C673.903,386.949 677.254,380.632 683.583,375.921C689.911,371.21 698.372,368.855 708.965,368.855C719.184,368.855 727.411,371.234 733.645,375.992C739.879,380.749 742.997,386.995 742.997,394.73L742.997,447.253L718.739,447.253L718.739,436.355L718.247,436.355C716.231,440.105 713.137,443.046 708.965,445.179C704.794,447.312 700.317,448.378 695.536,448.378Z" style="fill-rule:nonzero;"/>
        <path d="M785.235,448.378C775.719,448.378 768.254,444.874 762.84,437.867C757.426,430.859 754.719,421.167 754.719,408.792C754.719,396.558 757.461,386.96 762.946,379.999C768.43,373.038 775.954,369.558 785.516,369.558C790.954,369.558 795.7,370.894 799.754,373.566C803.809,376.238 806.704,379.777 808.438,384.183L808.93,384.183L808.93,345.792L833.821,345.792L833.821,447.253L809.071,447.253L809.071,434.105L808.579,434.105C806.985,438.277 804.09,441.699 799.895,444.37C795.7,447.042 790.813,448.378 785.235,448.378ZM805.133,394.413C802.555,390.828 799.039,389.035 794.586,389.035C790.133,389.035 786.629,390.816 784.075,394.378C781.52,397.941 780.243,402.816 780.243,409.003C780.243,415.191 781.508,420.054 784.039,423.593C786.571,427.132 790.086,428.902 794.586,428.902C799.086,428.902 802.614,427.144 805.168,423.628C807.723,420.113 809,415.238 809,409.003C809,402.863 807.711,397.999 805.133,394.413Z" style="fill-rule:nonzero;"/>
        <path d="M884.356,386.574C880.559,386.574 877.36,387.851 874.758,390.406C872.157,392.96 870.692,396.23 870.364,400.214L898.207,400.214C897.973,396.136 896.59,392.843 894.059,390.335C891.528,387.828 888.293,386.574 884.356,386.574ZM898.77,423.066L921.27,423.066C920.051,430.988 916.16,437.304 909.598,442.015C903.035,446.726 894.762,449.081 884.778,449.081C872.59,449.081 863.051,445.554 856.16,438.499C849.27,431.445 845.824,421.73 845.824,409.355C845.824,396.98 849.258,387.136 856.125,379.824C862.992,372.511 872.262,368.855 883.934,368.855C895.465,368.855 904.641,372.347 911.461,379.331C918.282,386.316 921.692,395.667 921.692,407.386L921.692,414.417L870.012,414.417L870.012,415.964C870.012,420.558 871.407,424.285 874.196,427.144C876.985,430.003 880.629,431.433 885.129,431.433C888.457,431.433 891.34,430.683 893.778,429.183C896.215,427.683 897.879,425.644 898.77,423.066Z" style="fill-rule:nonzero;"/>
    </g>
    <g transform="matrix(0.58681,0,0,0.58681,-289.361,-335.554)">
        <path d="M689.483,738.55C688.898,740.121 688.195,741.635 687.383,743.081L687.383,743.081L678.546,759.824L775.912,932.171C778.052,936.451 777.824,941.533 775.308,945.604C772.792,949.674 768.349,952.152 763.563,952.152L552.191,962.2C543.924,962.2 536.246,957.919 531.899,950.886C527.553,943.854 527.157,935.072 530.855,927.677L626.778,712.623C631.701,700.919 643.281,692.692 656.767,692.692C657.12,692.692 657.471,692.697 657.82,692.709C657.839,692.697 657.858,692.692 657.877,692.692C657.899,692.692 657.92,692.699 657.942,692.713C666.745,693.026 674.661,696.845 680.336,702.815C684.265,706.224 687.365,710.563 689.293,715.488L665.549,726.973L689.483,738.55ZM674.024,768.392L742.009,923.514C742.009,923.514 591.691,916.368 591.691,916.368L674.024,768.392Z" style="fill:url(#_Linear1);"/>
    </g>
    <defs>
        <linearGradient id="_Linear1" x1="0" y1="0" x2="1" y2="0" gradientUnits="userSpaceOnUse" gradientTransform="matrix(249.034,0,0,269.508,528.336,827.446)"><stop offset="0" style="stop-color:rgb(133,0,95);stop-opacity:1"/><stop offset="0.51" style="stop-color:rgb(200,47,186);stop-opacity:1"/><stop offset="0.79" style="stop-color:rgb(238,122,93);stop-opacity:1"/><stop offset="1" style="stop-color:rgb(255,155,51);stop-opacity:1"/></linearGradient>
    </defs>
</svg>
